# xmcd
#
# Track frame offsets: 
#        150
#        16134
#        29763
#        46429
#        62274
#        78477
#        93862
#        109219
#        123956
#        138292
#        153927
#        170384
#        186675
#        204513
#        218379
#        234929
#        247697
#        265156
#        280094
#        293055
#        307983
#        322549
#        336951
#
# Disc length: 4686 seconds
#
# Revision: 0
# Processed by: cddbd v1.5.2PL0 Copyright (c) Steve Scherf et al.
# Submitted via: ExactAudioCopy v1.1
#
DISCID=2e124c17
DTITLE=Various Artist - MNM Big Hits 2018 Best Of - CD 1
DYEAR=2018
DGENRE=Top 40
TTITLE0=Calvin Harris and Dua Lipa - One Kiss
TTITLE1=Dynoro and Gigi D'Agostino - In My Mind
TTITLE2=Clean Bandit Feat. Demi Lovato - Solo
TTITLE3=Rudimental Feat. Jess Glynne, Macklemore and Dan Caplen - These 
TTITLE3=Days
TTITLE4=Dua Lipa - IDGAF
TTITLE5=Ariana Grande - No Tears Left To Cry
TTITLE6=Marshmello and Anne-Marie - Friends
TTITLE7=David Guetta and Sia - Flames
TTITLE8=Jonas Blue Feat. Jack and Jack - Rise
TTITLE9=Selena Gomez - Back To You
TTITLE10=Bazart - Grip (Omarm Me)
TTITLE11=Kygo and Miguel - Remind Me To Forget
TTITLE12=Silk City and Dua Lipa Feat. Diplo and Mark Ronson - Electricity
TTITLE13=Zedd, Maren Morris and Grey - The Middle
TTITLE14=Post Malone Feat. Ty Dolla $ign - Psycho
TTITLE15=Aya Nakamura - Djadja
TTITLE16=Kendrick Lamar and SZA - All The Stars
TTITLE17=Maître Gims and Vianney - La Même
TTITLE18=Netsky Feat. A.Chal - Téquila Limonada
TTITLE19=Shawn Mendes and Zedd - Lost In Japan (Remix)
TTITLE20=Dimitri Vegas and Like Mike Feat. Wiz Khalifa - When I Grow Up
TTITLE21=Tourist LeMC Feat. Raymond Van Het Groenewoud - Spiegel
TTITLE22=Dean Lewis - Be Alright
EXTD=
EXTT0=
EXTT1=
EXTT2=
EXTT3=
EXTT4=
EXTT5=
EXTT6=
EXTT7=
EXTT8=
EXTT9=
EXTT10=
EXTT11=
EXTT12=
EXTT13=
EXTT14=
EXTT15=
EXTT16=
EXTT17=
EXTT18=
EXTT19=
EXTT20=
EXTT21=
EXTT22=
PLAYORDER=
